<?xml version="1.0" encoding="utf-8"?>
<!-- Generator: Adobe Illustrator 16.0.0, SVG Export Plug-In . SVG Version: 6.00 Build 0)  -->
<!DOCTYPE svg PUBLIC "-//W3C//DTD SVG 1.1//EN" "http://www.w3.org/Graphics/SVG/1.1/DTD/svg11.dtd">
<svg version="1.1" id="Layer_1" xmlns="http://www.w3.org/2000/svg" xmlns:xlink="http://www.w3.org/1999/xlink" x="0px" y="0px"
	 width="298px" height="345.098px" viewBox="0 0 298 345.098" enable-background="new 0 0 298 345.098" xml:space="preserve">
<g>
	<g>
		<path fill="#EEEEEE" d="M293.056,157.98c-5.441-20.657-15.198-39.563-28.273-55.688l8.567-8.563
			c6.073-6.077,6.073-15.929,0-21.999c-3.334-3.34-7.78-4.656-12.129-4.333c-3.597,0.254-7.146,1.596-9.866,4.333l-8.563,8.56
			c-9.084-7.354-19.082-13.552-29.734-18.627c-9.617-4.558-19.751-8.195-30.338-10.669c-0.09-0.016-0.205-0.016-0.311-0.038
			c-4.588-1.064-9.205-1.984-13.963-2.613v-7.979V40.21v-1.306h6.879c10.737,0,19.446-8.709,19.446-19.474
			C194.772,8.706,186.063,0,175.326,0h-6.879h-38.891h-8.062c-1.713,0-3.356,0.288-4.96,0.697c0,0-0.009,0.029-0.02,0.029
			c-8.326,2.201-14.463,9.715-14.463,18.704c0,10.765,8.709,19.474,19.442,19.474h8.062v9.438
			c-50.086,6.533-92.219,37.996-113.856,81.448c-4.32,8.658-7.893,17.745-10.454,27.238c-3.4,12.456-5.246,25.526-5.246,39.06
			c0,64.417,40.952,119.159,98.227,139.946c15.871,5.734,32.922,9.063,50.772,9.063c7.435,0,14.736-0.56,21.853-1.634
			c0.762-0.096,1.484-0.32,2.251-0.45c20.966-3.433,40.528-11.171,57.597-22.393c23.57-15.496,42.377-37.464,54.08-63.389
			c8.424-18.701,13.223-39.326,13.223-61.145C298,182.92,296.275,170.153,293.056,157.98z M226.847,273.943
			c-14.194,14.188-31.581,23.877-50.54,28.734c-6.501,1.627-13.259,2.511-20.067,2.967c-0.971,0.061-1.881,0.229-2.845,0.24
			c-1.476,0.072-2.916,0.299-4.396,0.299c-4.044,0-8.062-0.261-12.034-0.688c-24.859-2.698-47.885-13.609-65.823-31.552
			c-20.794-20.793-32.258-48.454-32.258-77.854c0-2.328,0.198-4.599,0.334-6.896c1.659-26.815,12.766-51.821,31.924-70.969
			c2.383-2.372,4.875-4.596,7.421-6.736l0.016-0.013c19.75-16.48,44.379-25.5,70.421-25.5c4.757,0,9.438,0.326,14.05,0.929
			c14.463,1.872,28.248,6.572,40.744,13.759c0.136,0.083,0.285,0.185,0.408,0.279c8.15,4.745,15.799,10.447,22.646,17.282
			c1.607,1.62,3.066,3.334,4.549,5.03c0.055,0.055,0.104,0.12,0.167,0.185c3.024,3.446,5.729,7.142,8.292,10.888
			c1.629,2.442,3.264,4.894,4.693,7.431c8.846,15.449,13.852,32.853,14.387,51.07c0.038,1.088,0.152,2.147,0.152,3.261
			C259.087,225.489,247.644,253.15,226.847,273.943z"/>
	</g>
</g>
<g>
	<g>
		<path fill="#D22856" d="M144.109,230.049H87.291v-11.952l20.402-20.627c6.041-6.189,9.988-10.479,11.843-12.869
			c1.853-2.391,3.188-4.605,4.002-6.645c0.814-2.038,1.224-4.151,1.224-6.338c0-3.261-0.898-5.689-2.696-7.283
			c-1.798-1.593-4.197-2.391-7.199-2.391c-3.15,0-6.208,0.723-9.174,2.168s-6.06,3.502-9.284,6.171l-9.34-11.063
			c4.003-3.41,7.319-5.818,9.951-7.228c2.632-1.408,5.504-2.493,8.617-3.252c3.114-0.759,6.597-1.14,10.452-1.14
			c5.078,0,9.563,0.927,13.454,2.78c3.892,1.854,6.912,4.448,9.062,7.783c2.149,3.336,3.226,7.153,3.226,11.452
			c0,3.744-0.659,7.256-1.975,10.536c-1.315,3.28-3.355,6.644-6.115,10.091c-2.762,3.446-7.626,8.357-14.594,14.732l-10.451,9.841
			v0.777h35.414V230.049z"/>
		<path fill="#D22856" d="M210.933,213.203h-9.784v16.846h-16.79v-16.846h-34.691v-11.952l35.637-52.482h15.845v51.091h9.784
			V213.203z M184.359,199.86v-13.787c0-2.298,0.093-5.634,0.278-10.007c0.186-4.373,0.333-6.913,0.445-7.617h-0.445
			c-1.372,3.039-3.021,6.004-4.948,8.895L164.79,199.86H184.359z"/>
	</g>
</g>
<circle fill="none" stroke="#D22856" stroke-width="12" stroke-miterlimit="10" cx="149" cy="196.121" r="113.217"/>
</svg>
