<!DOCTYPE svg PUBLIC "-//W3C//DTD SVG 1.1 Tiny//EN" "http://www.w3.org/Graphics/SVG/1.1/DTD/svg11-tiny.dtd">
<svg version="1.1" baseProfile="tiny" id="Layer_1" xmlns="http://www.w3.org/2000/svg" xmlns:xlink="http://www.w3.org/1999/xlink"
   x="0px" y="0px" width="154.384px" height="195.325px" viewBox="0 0 154.384 195.325" xml:space="preserve">
<path fill="#d22856" d="M77.997,0.586L77.19,0.502L0.5,8.542V149.11l76.692,45.633l76.692-45.633V8.542
  L77.997,0.586z M143.852,143.406l-66.66,39.663l-66.66-39.663V85.791l66.374,39.506l0.111,7.159l-45.534-27.1l-0.067,6.951
  l45.715,27.475l0.113,7.35l-45.7-27.186l-0.066,6.95l45.714,27.475l46.152-27.615v-6.982l-0.058,0.034v-2.386v-2.864V97.102
  l20.565-12.281V143.406z M143.798,77.347l-18.236,10.744l-8.419,4.96L76.994,69.167l-0.066,6.951l34.316,20.407l-0.304,0.18
  l-0.739,0.435l-4.876,2.873L76.994,83.158l-0.066,6.951l22.362,13.298l-5.276,3.529l-0.128,0.077l-16.892-9.951l-0.066,6.95
  l11.084,6.527l-11.291,6.779L10.677,78.06l66.139-39.755v0.007L143.798,77.347z M143.852,70.355l-67.02-39.508v-0.01l-0.008,0.005
  l-0.008-0.005v0.01L10.532,70.309V17.578l66.661-6.989l66.659,6.989V70.355z"/>
</svg>
