<!DOCTYPE svg PUBLIC "-//W3C//DTD SVG 1.1 Tiny//EN" "http://www.w3.org/Graphics/SVG/1.1/DTD/svg11-tiny.dtd">
<svg version="1.1" baseProfile="tiny" id="apple"
	 xmlns="http://www.w3.org/2000/svg" xmlns:xlink="http://www.w3.org/1999/xlink" x="0px" y="0px" width="456.008px"
	 height="560.035px" viewBox="0 0 456.008 560.035" xml:space="preserve">
<path fill="#FFFFFF" d="M380.844,297.529c0.787,84.751,74.348,112.955,75.163,113.314c-0.622,1.988-11.754,40.19-38.756,79.651
	c-23.343,34.117-47.567,68.107-85.73,68.811c-37.499,0.691-49.557-22.236-92.429-22.236c-42.859,0-56.256,21.533-91.753,22.928
	c-36.836,1.395-64.887-36.893-88.423-70.883C10.822,419.585-25.93,292.64,23.42,206.95c24.516-42.554,68.328-69.5,115.882-70.192
	c36.172-0.69,70.316,24.336,92.428,24.336c22.1,0,63.59-30.096,107.208-25.676c18.26,0.76,69.515,7.376,102.428,55.552
	C438.714,192.615,380.207,226.674,380.844,297.529 M310.368,89.418c19.558-23.673,32.721-56.627,29.129-89.417
	C311.308,1.134,277.22,18.786,257,42.445c-18.121,20.952-33.991,54.487-29.709,86.628
	C258.712,131.504,290.811,113.106,310.368,89.418"/>
</svg>
